HIERARCHY
ROOT Hips
{
	OFFSET -0.001795 -0.223333 0.028219
	CHANNELS 6 Xposition Yposition Zposition Zrotation Yrotation Xrotation 
	JOINT LeftUpLeg
	{
		OFFSET 0.069520 -0.091406 -0.006815
		CHANNELS 3 Zrotation Yrotation Xrotation
		JOINT LeftLeg
		{
			OFFSET 0.034277 -0.375199 -0.004496
			CHANNELS 3 Zrotation Yrotation Xrotation
			JOINT LeftFoot
			{
				OFFSET -0.013596 -0.397961 -0.043693
				CHANNELS 3 Zrotation Yrotation Xrotation
				JOINT LeftToe
				{
					OFFSET 0.026358 -0.055791 0.119288
					CHANNELS 3 Zrotation Yrotation Xrotation
					End Site
					{
						OFFSET 0.000000 0.000000 0.000000
					}
				}
			}
		}
	}
	JOINT RightUpLeg
	{
		OFFSET -0.067670 -0.090522 -0.004320
		CHANNELS 3 Zrotation Yrotation Xrotation
		JOINT RightLeg
		{
			OFFSET -0.038290 -0.382569 -0.008850
			CHANNELS 3 Zrotation Yrotation Xrotation
			JOINT RightFoot
			{
				OFFSET 0.015774 -0.398415 -0.042312
				CHANNELS 3 Zrotation Yrotation Xrotation
				JOINT RightToe
				{
					OFFSET -0.025372 -0.048144 0.123348
					CHANNELS 3 Zrotation Yrotation Xrotation
					End Site
					{
						OFFSET 0.000000 0.000000 0.000000
					}
				}
			}
		}
	}
	JOINT Spine
	{
		OFFSET -0.002533 0.108963 -0.026696
		CHANNELS 3 Zrotation Yrotation Xrotation
		JOINT Spine1
		{
			OFFSET 0.005487 0.135180 0.001092
			CHANNELS 3 Zrotation Yrotation Xrotation
			JOINT Spine2
			{
				OFFSET 0.001457 0.052922 0.025425
				CHANNELS 3 Zrotation Yrotation Xrotation
				JOINT Neck
				{
					OFFSET -0.002778 0.213870 -0.042857
					CHANNELS 3 Zrotation Yrotation Xrotation
					JOINT Head
					{
						OFFSET 0.005152 0.064970 0.051349
						CHANNELS 3 Zrotation Yrotation Xrotation
						End Site
						{
							OFFSET 0.000000 0.000000 0.000000
						}
					}
				}
				JOINT LeftShoulder
				{
					OFFSET 0.078845 0.121749 -0.034090
					CHANNELS 3 Zrotation Yrotation Xrotation
					JOINT LeftArm
					{
						OFFSET 0.090977 0.030469 -0.008868
						CHANNELS 3 Zrotation Yrotation Xrotation
						JOINT LeftForeArm
						{
							OFFSET 0.259612 -0.012772 -0.027456
							CHANNELS 3 Zrotation Yrotation Xrotation
							JOINT LeftHand
							{
								OFFSET 0.249234 0.008986 -0.001171
								CHANNELS 3 Zrotation Yrotation Xrotation
								End Site
								{
									OFFSET 0.000000 0.000000 0.000000
								}
							}
						}
					}
				}
				JOINT RightShoulder
				{
					OFFSET -0.081759 0.118833 -0.038615
					CHANNELS 3 Zrotation Yrotation Xrotation
					JOINT RightArm
					{
						OFFSET -0.096012 0.032551 -0.009143
						CHANNELS 3 Zrotation Yrotation Xrotation
						JOINT RightForeArm
						{
							OFFSET -0.253742 -0.013329 -0.021401
							CHANNELS 3 Zrotation Yrotation Xrotation
							JOINT RightHand
							{
								OFFSET -0.255298 0.007772 -0.005559
								CHANNELS 3 Zrotation Yrotation Xrotation
								End Site
								{
									OFFSET 0.000000 0.000000 0.000000
								}
							}
						}
					}
				}
			}
		}
	}
}
MOTION
Frames: 7
Frame Time: 0.050000
0.126621 0.747185 -0.502043 -1.262768 -45.798898 13.640467 -13.789299 3.075769 -62.946672 34.549833 -17.121719 67.718726 -1.808848 -16.573971 -20.905691 0.000000 0.000000 0.000000 -16.975037 13.062976 -61.663902 31.522842 -7.139614 66.716391 -12.215421 -46.268492 -18.395382 0.000000 0.000000 0.000000 19.105572 2.915586 65.782653 -7.674591 1.323217 -29.811453 -12.518935 -8.343984 28.311417 9.985761 -1.964516 -51.899903 0.000000 0.000000 0.000000 -13.254980 -25.696669 15.878923 -45.660945 -44.930903 11.125711 62.053461 -28.166490 -10.979127 0.000000 0.000000 0.000000 23.992232 14.037031 -0.803033 60.752981 21.942632 4.188594 -58.238176 56.245593 -34.370748 0.000000 0.000000 0.000000 
0.119351 0.739125 -0.504017 -1.182118 -45.079508 12.637004 -13.227650 2.970752 -62.175327 34.177305 -17.321636 70.025166 -0.027022 -13.652983 -23.564522 0.000000 0.000000 0.000000 -18.440939 12.507756 -62.418508 34.866040 -10.107188 67.343815 -13.929023 -49.585770 -15.732220 0.000000 0.000000 0.000000 18.305917 3.209243 66.474799 -7.688278 1.302083 -30.024093 -12.485777 -8.165405 28.629353 10.077970 -1.998599 -51.823032 0.000000 0.000000 0.000000 -12.890001 -25.017828 15.207496 -46.330136 -45.747253 11.771597 64.789990 -29.536561 -12.269302 0.000000 0.000000 0.000000 24.720536 13.740304 -0.815254 60.628149 21.366758 3.881942 -63.177672 59.080584 -39.427690 0.000000 0.000000 0.000000 
0.110875 0.728829 -0.504930 -1.654251 -43.309379 11.814591 -12.221241 2.671837 -61.368097 34.494698 -18.384477 71.997108 0.787325 -12.054581 -24.068138 0.000000 0.000000 0.000000 -18.020951 12.181151 -62.640336 37.137733 -13.066744 70.091732 -14.583604 -50.127501 -14.929448 0.000000 0.000000 0.000000 17.073382 3.322476 67.385349 -6.984363 1.128146 -31.026645 -11.840102 -7.749480 29.538476 10.551851 -2.187602 -51.943913 0.000000 0.000000 0.000000 -15.225223 -25.405285 16.164853 -42.469037 -45.617300 9.712994 70.157190 -31.927535 -15.294512 0.000000 0.000000 0.000000 25.928756 13.975619 -0.323323 58.165299 23.077380 4.528808 -67.736039 58.883332 -41.858058 0.000000 0.000000 0.000000 
0.101292 0.712413 -0.503838 -2.698346 -43.132476 11.524799 -10.848753 3.539738 -62.338231 33.866371 -19.536061 76.478815 1.912426 -11.248484 -26.128945 0.000000 0.000000 0.000000 -21.844962 11.502814 -66.331051 44.569209 -20.035490 68.590325 -16.764654 -54.171952 -13.324965 0.000000 0.000000 0.000000 16.069614 3.802664 67.854054 -8.054927 1.249367 -29.502525 -9.046733 -7.586790 27.323125 8.357522 -1.757774 -50.274234 0.000000 0.000000 0.000000 -15.774750 -26.451024 16.740298 -40.236959 -45.791533 8.996942 73.910115 -33.663237 -17.953336 0.000000 0.000000 0.000000 25.402462 13.405463 -0.134247 56.821740 22.676398 4.231481 -73.123813 60.108006 -46.666469 0.000000 0.000000 0.000000 
0.090454 0.687603 -0.500508 -3.947562 -41.221871 11.411967 -11.097553 3.043911 -63.846443 36.324485 -23.969461 79.071422 2.694936 -11.390759 -27.645137 0.000000 0.000000 0.000000 -27.498283 9.224709 -70.258787 50.128419 -26.097559 65.646905 -18.768711 -58.187489 -13.463139 0.000000 0.000000 0.000000 15.903202 3.374668 68.997489 -6.201585 0.921330 -30.719988 -8.763741 -6.679217 28.215547 7.749266 -1.654703 -49.372804 0.000000 0.000000 0.000000 -14.259591 -26.704508 15.898230 -39.007583 -46.732391 8.975933 77.766306 -34.304857 -19.833184 0.000000 0.000000 0.000000 23.861699 12.483375 0.305602 57.436452 24.927278 4.889328 -79.016141 60.832675 -51.012944 0.000000 0.000000 0.000000 
0.078014 0.656532 -0.495155 -4.791128 -41.715686 11.750022 -11.196586 3.776050 -65.994065 37.783695 -27.545258 82.766437 4.093392 -11.677359 -31.394198 0.000000 0.000000 0.000000 -29.061243 9.594010 -74.415862 50.501196 -27.529824 65.071753 -15.244562 -60.308763 -23.285991 0.000000 0.000000 0.000000 16.879336 3.093996 69.429863 -8.078866 1.229675 -29.181262 -7.310165 -6.940204 27.004360 7.064396 -1.570846 -48.807010 0.000000 0.000000 0.000000 -14.038890 -27.496326 16.183286 -36.128782 -48.541991 8.750320 80.567244 -34.364621 -21.235094 0.000000 0.000000 0.000000 23.230614 13.091965 0.743131 55.958320 26.971944 5.753681 -85.877888 59.491362 -55.495091 0.000000 0.000000 0.000000 
0.063711 0.619256 -0.487407 -4.369643 -41.933369 11.284789 -11.319535 4.292450 -68.319792 38.653784 -31.860836 87.421751 5.157869 -10.008396 -32.413471 0.000000 0.000000 0.000000 -30.763903 9.284072 -77.266759 51.267433 -30.225837 66.448917 -13.893184 -60.924101 -27.741854 0.000000 0.000000 0.000000 18.386940 2.521234 70.843964 -8.345355 1.325107 -29.679557 -8.822875 -6.693451 28.195274 8.436742 -1.830461 -49.302121 0.000000 0.000000 0.000000 -9.459301 -29.158135 14.849356 -34.258128 -50.645910 9.364647 81.554588 -30.781964 -19.044446 0.000000 0.000000 0.000000 21.497900 12.923310 1.165859 56.529567 31.628927 7.730950 -91.810857 58.514283 -59.056954 0.000000 0.000000 0.000000 
